<?xml version="1.0" encoding="UTF-8" standalone="no"?>
<svg
   width="1536"
   height="1536"
   viewBox="0 0 1536 1536"
   version="1.1"
   id="svg1"
   sodipodi:docname="syncthing-symbolic.svg"
   inkscape:version="1.3.2 (091e20ef0f, 2023-11-25)"
   xmlns:inkscape="http://www.inkscape.org/namespaces/inkscape"
   xmlns:sodipodi="http://sodipodi.sourceforge.net/DTD/sodipodi-0.dtd"
   xmlns="http://www.w3.org/2000/svg"
   xmlns:svg="http://www.w3.org/2000/svg">
  <defs
     id="defs1" />
  <sodipodi:namedview
     id="namedview1"
     pagecolor="#505050"
     bordercolor="#eeeeee"
     borderopacity="1"
     inkscape:showpageshadow="0"
     inkscape:pageopacity="0"
     inkscape:pagecheckerboard="0"
     inkscape:deskcolor="#505050"
     inkscape:zoom="0.265"
     inkscape:cx="1200"
     inkscape:cy="1200"
     inkscape:window-width="1600"
     inkscape:window-height="834"
     inkscape:window-x="0"
     inkscape:window-y="0"
     inkscape:window-maximized="1"
     inkscape:current-layer="svg1" />
  <path
     d="M 768,0 A 768,768 0 0 0 0,768.00002 768,768 0 0 0 768,1536 768,768 0 0 0 1536,768.00002 768,768 0 0 0 768,0 Z m 5.837,154.395 c 199.396,0 376.745,95.942 488.331,244.094 a 116.97,116.97 0 0 1 20.877,-1.843 c 12.495,0.034 25.202,2.073 37.693,6.325 61.492,20.934 94.2,87.66 73.266,149.152 -6.572,19.305 -17.659,35.77 -31.679,48.632 14.67,52.393 22.527,107.606 22.527,164.62802 0,146.813 -52.021,281.66698 -138.594,387.12298 a 118.292,118.292 0 0 1 10.37,59.023 c -6.541,65.417 -62.8,112.518 -128.218,107.285 -20.905,-2.09 -39.936,-9.399 -55.99,-20.46 -88.335,49.667 -190.202,78.016 -298.583,78.016 -245.773,0 -458.038,-145.76 -554.943,-355.396 -19.094,-0.638 -38.346,-5.874 -56.044,-16.163 -54.95,-32.70898 -73.268,-104.66898 -40.559,-160.92798 10.475,-17.597 24.981,-31.425 41.702,-41.036 a 617.84,617.84 0 0 1 -1.143,-37.464 C 162.85,428.403 436.857,154.395 773.837,154.395 Z m 0,78.5 c -294.555,0 -532.487,237.933 -532.487,532.48802 0,7.77 0.177,15.497 0.505,23.185 14.178,2.25 28.2,7.104 41.363,14.757 20.666,12.792 36.147,30.952 45.685,51.555 l 446.736,-41.26 c 7.08,-27.818 24.348,-52.955 50.542,-69.17 19.278,-12.695 41.09,-18.801 62.765,-18.863 20.91,-0.059 41.686,5.517 59.94,16.215 L 1172.865,555.771 c -9.326,-24.656 -10.448,-52.596 -1.279,-79.532 4.997,-14.678 12.619,-27.7 22.14,-38.76 C 1096.343,312.869 944.603,232.896 773.837,232.896 Z m 449.724,382.81 -223.911,185.96302 c 14.146,36.823 8.215,78.557 -14.782,110.318 l 121.674,175.45798 c 13.517,-3.805 27.956,-5.32 42.802,-4.133 15.305,1.53 29.608,5.855 42.472,12.402 71.743,-90.715 114.534,-205.42998 114.534,-330.32998 0,-46.251 -5.87,-91.10402 -16.902,-133.86102 -14.695,0.83 -29.796,-1.093 -44.596,-6.131 a 118.108,118.108 0 0 1 -21.29,-9.686 z m -440.84,276.09502 -446.106,41.202 a 114.997,114.997 0 0 1 -12.838,31.25 115,115 0 0 1 -29.585,33.035 C 380.247,1175.34 562.46,1297.87 773.837,1297.87 c 91.237,0 177.04,-22.835 252.027,-63.102 a 118.28,118.28 0 0 1 -4.739,-44.172 c 1.748,-21.849 9.341,-41.65 21.107,-58.144 L 920.426,956.79202 c -47.717,13.06 -101.027,-5.708 -129.57,-50.107 a 119.627,119.627 0 0 1 -8.135,-14.885 z"
     id="path1" />
</svg>
